<svg width="31" height="25" viewBox="0 0 31 25" fill="none" xmlns="http://www.w3.org/2000/svg">
<path d="M9.54428 22.5311H9.8072L9.67341 22.3047C8.91567 21.0229 7.6293 20.261 6.31492 20.261C5.00053 20.261 3.71417 21.0229 2.95643 22.3047L2.82264 22.5311H3.08556H9.54428ZM10.2392 12.6652C10.2392 14.8326 8.48219 16.5896 6.31481 16.5896C4.14743 16.5896 2.39042 14.8326 2.39042 12.6652C2.39042 10.4978 4.14743 8.74082 6.31481 8.74082C8.48219 8.74082 10.2392 10.4978 10.2392 12.6652ZM6.31481 14.3823C7.26312 14.3823 8.03188 13.6135 8.03188 12.6652C8.03188 11.7169 7.26312 10.9481 6.31481 10.9481C5.3665 10.9481 4.59774 11.7169 4.59774 12.6652C4.59774 13.6135 5.3665 14.3823 6.31481 14.3823ZM12.4675 23.6643C12.5626 24.2393 12.0819 24.7384 11.4644 24.7384H1.16543C0.547899 24.7384 0.0671892 24.2393 0.162309 23.6643C0.691697 20.4641 3.25336 18.0537 6.31492 18.0537C9.37647 18.0537 11.9381 20.4641 12.4675 23.6643Z" fill="#FF6F00" stroke="white" stroke-width="0.3"/>
<path d="M28.4927 22.5062H28.6177V22.3812L28.6178 8.41478V8.34322L28.556 8.30698L18.4942 2.39952L18.4335 2.36391L18.3716 2.39728L10.8501 6.45041C10.3014 6.74611 9.61681 6.54098 9.32111 5.99224C9.02541 5.4435 9.23054 4.75895 9.77928 4.46325L17.3007 0.410118C18.0335 0.0152507 18.9192 0.0314732 19.637 0.45291L29.6989 6.36037C30.4275 6.78816 30.8751 7.56986 30.8751 8.41478L30.875 22.3812C30.875 23.6969 29.8084 24.7635 28.4927 24.7635H17.2098C16.5865 24.7635 16.0812 24.2582 16.0812 23.6348C16.0812 23.0115 16.5865 22.5062 17.2098 22.5062H28.4927Z" fill="#2F3241" stroke="white" stroke-width="0.25"/>
<path d="M14.7029 11.0984C14.7029 10.406 15.2642 9.84473 15.9565 9.84473C16.6489 9.84473 17.2102 10.406 17.2102 11.0984V12.352C17.2102 13.0444 16.6489 13.6057 15.9565 13.6057C15.2642 13.6057 14.7029 13.0444 14.7029 12.352V11.0984Z" fill="#2F3241"/>
<path d="M20.9712 9.84473C20.2788 9.84473 19.7175 10.406 19.7175 11.0984V12.352C19.7175 13.0444 20.2788 13.6057 20.9712 13.6057C21.6635 13.6057 22.2248 13.0444 22.2248 12.352V11.0984C22.2248 10.406 21.6635 9.84473 20.9712 9.84473Z" fill="#2F3241"/>
<path d="M14.7029 16.113C14.7029 15.4206 15.2642 14.8594 15.9565 14.8594C16.6489 14.8594 17.2102 15.4206 17.2102 16.113V17.3667C17.2102 18.059 16.6489 18.6203 15.9565 18.6203C15.2642 18.6203 14.7029 18.059 14.7029 17.3667V16.113Z" fill="#2F3241"/>
<path d="M20.9712 14.8594C20.2788 14.8594 19.7175 15.4206 19.7175 16.113V17.3667C19.7175 18.059 20.2788 18.6203 20.9712 18.6203C21.6635 18.6203 22.2248 18.059 22.2248 17.3667V16.113C22.2248 15.4206 21.6635 14.8594 20.9712 14.8594Z" fill="#2F3241"/>
</svg>
