<svg width="24" height="29" viewBox="0 0 24 29" fill="none" xmlns="http://www.w3.org/2000/svg">
<mask id="path-1-inside-1" fill="white">
<rect y="11" width="24" height="18" rx="1"/>
</mask>
<rect y="11" width="24" height="18" rx="1" stroke="#2F3241" stroke-width="4" mask="url(#path-1-inside-1)"/>
<path d="M19 12V8C19 4.13401 15.866 1 12 1V1C8.13401 1 5 4.13401 5 8V12" stroke="#2F3241" stroke-width="2"/>
<path d="M15 11V8C15 6.34315 13.6569 5 12 5V5C10.3431 5 9 6.34315 9 8V11" stroke="#2F3241" stroke-width="2"/>
<mask id="path-4-inside-2" fill="white">
<path fill-rule="evenodd" clip-rule="evenodd" d="M15 20.6458C15.6224 19.9407 16 19.0144 16 18C16 15.7909 14.2091 14 12 14C9.79086 14 8 15.7909 8 18C8 19.0144 8.37764 19.9407 9 20.6458V23C9 24.6569 10.3431 26 12 26C13.6569 26 15 24.6569 15 23V20.6458Z"/>
</mask>
<path d="M15 20.6458L13.5005 19.3224L13 19.8894V20.6458H15ZM9 20.6458H11V19.8894L10.4995 19.3224L9 20.6458ZM14 18C14 18.5086 13.8128 18.9686 13.5005 19.3224L16.4995 21.9693C17.432 20.9128 18 19.5203 18 18H14ZM12 16C13.1046 16 14 16.8954 14 18H18C18 14.6863 15.3137 12 12 12V16ZM10 18C10 16.8954 10.8954 16 12 16V12C8.68629 12 6 14.6863 6 18H10ZM10.4995 19.3224C10.1872 18.9686 10 18.5086 10 18H6C6 19.5203 6.56805 20.9128 7.50052 21.9693L10.4995 19.3224ZM11 23V20.6458H7V23H11ZM12 24C11.4477 24 11 23.5523 11 23H7C7 25.7614 9.23858 28 12 28V24ZM13 23C13 23.5523 12.5523 24 12 24V28C14.7614 28 17 25.7614 17 23H13ZM13 20.6458V23H17V20.6458H13Z" fill="#FF6F00" mask="url(#path-4-inside-2)"/>
</svg>
