<svg width="28" height="28" viewBox="0 0 28 28" fill="none" xmlns="http://www.w3.org/2000/svg">
<path d="M16.472 2.76209L16.472 2.7621L12.1243 7.10978C11.7354 7.49871 11.7354 8.12916 12.1243 8.51809C12.5133 8.90702 13.1437 8.90702 13.5326 8.51809L17.8803 4.17043C17.8803 4.17042 17.8803 4.17042 17.8803 4.17042C18.6707 3.38053 19.7269 2.94489 20.8546 2.94489C21.9827 2.94489 23.0389 3.38054 23.8293 4.17089C24.6196 4.96124 25.0553 6.01743 25.0553 7.14561C25.0553 8.27331 24.6196 9.3295 23.8293 10.1199L23.8646 10.1552L23.8293 10.1199L18.1445 15.8061C18.1445 15.8061 18.1445 15.8061 18.1445 15.8061C16.5038 17.4458 13.8352 17.4458 12.1946 15.8061C11.8056 15.4171 11.1752 15.4171 10.7863 15.8061C10.3973 16.195 10.3973 16.8259 10.7863 17.2144C11.9946 18.4227 13.5821 19.0268 15.1693 19.0268C16.7565 19.0268 18.344 18.4227 19.5523 17.2144L25.2381 11.5286C25.2381 11.5286 25.2381 11.5286 25.2381 11.5286C26.4049 10.3623 27.0477 8.80524 27.0477 7.14561C27.0477 5.4855 26.4049 3.92893 25.2381 2.7621C22.8214 0.345482 18.8891 0.346452 16.472 2.76209Z" fill="#2F3241" stroke="#2F3241" stroke-width="0.1"/>
<path d="M15.4682 12.5309C15.8572 12.9199 16.4876 12.9199 16.8766 12.5309C17.2655 12.142 17.2655 11.5116 16.8766 11.1226C14.4604 8.70649 10.5281 8.70602 8.1105 11.1226L8.1105 11.1226L2.75915 16.4745C1.59279 17.6408 0.95 19.1979 0.95 20.8575C0.95 22.5166 1.59279 24.0737 2.75961 25.24C3.92597 26.4069 5.48302 27.0497 7.14218 27.0497C8.80181 27.0497 10.3588 26.4069 11.5252 25.24C11.5252 25.24 11.5252 25.24 11.5252 25.24L15.2041 21.5612C15.593 21.1722 15.593 20.5418 15.2041 20.1529C14.8152 19.7639 14.1852 19.7639 13.7962 20.1529L10.1174 23.8317C9.32702 24.6221 8.27083 25.0577 7.14265 25.0577C6.01495 25.0577 4.95828 24.6221 4.16793 23.8317C2.52776 22.1916 2.52776 19.5225 4.16793 17.8823L9.51927 12.531C9.51927 12.531 9.51928 12.5309 9.51928 12.5309C10.3096 11.7411 11.3658 11.3054 12.494 11.3054C13.6217 11.3054 14.6779 11.7411 15.4682 12.5309ZM15.4682 12.5309L15.5036 12.4956L15.4682 12.5309Z" fill="#FF6F00" stroke="#FF6F00" stroke-width="0.1"/>
</svg>
