<svg width="25" height="24" viewBox="0 0 25 24" fill="none" xmlns="http://www.w3.org/2000/svg">
<path d="M18.8636 8.33656L15.2273 11.9729H17.9545C17.9545 14.982 15.5091 17.4275 12.5 17.4275C11.5818 17.4275 10.7091 17.2002 9.95455 16.7911L8.62727 18.1184C9.74545 18.8275 11.0727 19.2457 12.5 19.2457C16.5182 19.2457 19.7727 15.9911 19.7727 11.9729H22.5L18.8636 8.33656ZM7.04545 11.9729C7.04545 8.96383 9.49091 6.51838 12.5 6.51838C13.4182 6.51838 14.2909 6.74565 15.0455 7.15474L16.3727 5.82747C15.2545 5.11838 13.9273 4.7002 12.5 4.7002C8.48182 4.7002 5.22727 7.95474 5.22727 11.9729H2.5L6.13636 15.6093L9.77273 11.9729H7.04545Z" fill="white"/>
</svg>
