<svg width="50" height="50" viewBox="0 0 50 50" fill="none" xmlns="http://www.w3.org/2000/svg">
<path fill-rule="evenodd" clip-rule="evenodd" d="M17.7476 23.5413H23.2959V3.12466H17.7476V23.5413ZM14.7164 26.4516H26.3251V0.217773H14.7164V26.4516Z" fill="white"/>
<path fill-rule="evenodd" clip-rule="evenodd" d="M0.138382 32.207H49.4819V29.3086H0.138382V32.207Z" fill="white"/>
<path fill-rule="evenodd" clip-rule="evenodd" d="M3.15844 43.5324H17.4212V37.9992H3.15844V43.5324ZM0.138382 49.7113H3.15844V46.4274H20.442V35.1016H0.138382V49.7113Z" fill="white"/>
<path fill-rule="evenodd" clip-rule="evenodd" d="M37.8735 3.12466V26.4513H40.9028V8.94382L46.4499 3.12697V26.4513H49.4822V0.217773H45.2243L40.9028 4.73627V0.217773H36.6468L29.2926 7.84302V26.4513H32.3257V8.94497L37.8735 3.12466Z" fill="white"/>
<path fill-rule="evenodd" clip-rule="evenodd" d="M26.4177 43.5324H34.8329V37.9992H26.4177V43.5324ZM37.9838 43.5324H46.4631V37.9992H37.9838V43.5324ZM23.3961 46.4274H34.8333V49.7113H37.9838V46.4274H49.4828V35.1016H23.3961V46.4274Z" fill="white"/>
<path fill-rule="evenodd" clip-rule="evenodd" d="M3.17115 8.94497L8.71708 3.12697V23.5417H3.17115V8.94497ZM8.71708 26.4513H11.7487V0.217773H7.49232L0.138809 7.84302V26.4513H8.71708Z" fill="white"/>
</svg>
