<svg width="16" height="14" viewBox="0 0 16 14" fill="none" xmlns="http://www.w3.org/2000/svg">
<path fill-rule="evenodd" clip-rule="evenodd" d="M0.0700684 1C0.0700684 0.447715 0.517784 0 1.07007 0H14.916C15.4683 0 15.916 0.447715 15.916 1C15.916 1.55228 15.4683 2 14.916 2H1.07007C0.517784 2 0.0700684 1.55228 0.0700684 1ZM0.0700684 6.99988C0.0700684 6.44759 0.517784 5.99988 1.07007 5.99988H14.916C15.4683 5.99988 15.916 6.44759 15.916 6.99988C15.916 7.55216 15.4683 7.99988 14.916 7.99988H1.07007C0.517784 7.99988 0.0700684 7.55216 0.0700684 6.99988ZM1.07007 11.9998C0.517784 11.9998 0.0700684 12.4475 0.0700684 12.9998C0.0700684 13.5521 0.517784 13.9998 1.07007 13.9998H14.916C15.4683 13.9998 15.916 13.5521 15.916 12.9998C15.916 12.4475 15.4683 11.9998 14.916 11.9998H1.07007Z" fill="white"/>
</svg>
