<svg width="22" height="21" viewBox="0 0 22 21" fill="none" xmlns="http://www.w3.org/2000/svg">
<path d="M6 6C6 5.44772 6.44772 5 7 5H15C15.5523 5 16 5.44772 16 6C16 6.55228 15.5523 7 15 7H7C6.44772 7 6 6.55228 6 6Z" fill="#6E6E82"/>
<path d="M7 9C6.44772 9 6 9.44771 6 10C6 10.5523 6.44772 11 7 11H15C15.5523 11 16 10.5523 16 10C16 9.44771 15.5523 9 15 9H7Z" fill="#6E6E82"/>
<path fill-rule="evenodd" clip-rule="evenodd" d="M0 2C0 0.895429 0.895431 0 2 0H20C21.1046 0 22 0.89543 22 2V14.25C22 15.3546 21.1046 16.25 20 16.25H11.2856L6.3303 20.741C6.03721 21.0066 5.61511 21.0745 5.2535 20.9142C4.8919 20.7539 4.65876 20.3955 4.65876 20V16.25H2C0.895432 16.25 0 15.3546 0 14.25V2ZM20 2L2 2V14.25H4.65876C5.76333 14.25 6.65876 15.1454 6.65876 16.25V17.7441L9.94251 14.7681C10.3104 14.4347 10.7891 14.25 11.2856 14.25H20V2Z" fill="#6E6E82"/>
</svg>
