<svg width="25" height="19" viewBox="0 0 25 19" fill="none" xmlns="http://www.w3.org/2000/svg">
<path fill-rule="evenodd" clip-rule="evenodd" d="M18.8571 8.28571C18.0681 8.28571 17.4285 7.64611 17.4285 6.85714C17.4285 6.06816 18.0681 5.42856 18.8571 5.42856C19.6461 5.42856 20.2857 6.06816 20.2857 6.85714C20.2857 7.64611 19.6461 8.28571 18.8571 8.28571ZM18.8571 10.2857C16.9636 10.2857 15.4285 8.75068 15.4285 6.85714C15.4285 4.96359 16.9636 3.42856 18.8571 3.42856C20.7507 3.42856 22.2857 4.96359 22.2857 6.85714C22.2857 8.75068 20.7507 10.2857 18.8571 10.2857Z" fill="#D9D9DD"/>
<path fill-rule="evenodd" clip-rule="evenodd" d="M24 18.1431C24.5522 18.1431 25 17.6953 25 17.1431C25 14.0609 22.0712 11.8573 18.8571 11.8573C17.7723 11.8573 16.7454 12.099 15.8514 12.5299C15.3539 12.7697 15.1451 13.3674 15.3849 13.8649C15.6247 14.3624 16.2224 14.5713 16.7199 14.3315C17.3389 14.0331 18.0684 13.8573 18.8571 13.8573C20.8178 13.8573 22.2792 14.8899 22.7961 16.1431H17.5714C17.0191 16.1431 16.5714 16.5908 16.5714 17.1431C16.5714 17.6953 17.0191 18.1431 17.5714 18.1431H24Z" fill="#D9D9DD"/>
<path fill-rule="evenodd" clip-rule="evenodd" d="M7.71429 6.57143C8.97665 6.57143 10 5.54808 10 4.28571C10 3.02335 8.97665 2 7.71429 2C6.45192 2 5.42857 3.02335 5.42857 4.28571C5.42857 5.54808 6.45192 6.57143 7.71429 6.57143ZM7.71429 8.57143C10.0812 8.57143 12 6.65265 12 4.28571C12 1.91878 10.0812 0 7.71429 0C5.34735 0 3.42857 1.91878 3.42857 4.28571C3.42857 6.65265 5.34735 8.57143 7.71429 8.57143Z" fill="#D9D9DD"/>
<path fill-rule="evenodd" clip-rule="evenodd" d="M13.0693 15.9991C12.2589 13.83 10.1659 12.2848 7.71429 12.2848C5.26267 12.2848 3.1697 13.83 2.35926 15.9991H13.0693ZM14.4304 17.9991C14.9826 17.9991 15.4354 17.549 15.3646 17.0013C14.8753 13.2122 11.6367 10.2848 7.71429 10.2848C3.79194 10.2848 0.553296 13.2122 0.0639461 17.0013C-0.00679164 17.549 0.445954 17.9991 0.998238 17.9991H14.4304Z" fill="#D9D9DD"/>
</svg>
