<svg width="20" height="20" viewBox="0 0 20 20" fill="none" xmlns="http://www.w3.org/2000/svg">
<path fill-rule="evenodd" clip-rule="evenodd" d="M8.98185 0.435446C9.60715 0.0679176 10.3824 0.0677301 11.0079 0.434955L19.0126 5.13463C19.6243 5.49377 20 6.15003 20 6.85935L20 17.9999C20 19.1044 19.1046 19.9999 18 19.9999H2C0.895429 19.9999 -1.60932e-06 19.1044 0 17.9999L1.67489e-05 6.85902C1.77622e-05 6.15005 0.375361 5.49406 0.986577 5.1348L8.98185 0.435446ZM18 6.85935L9.99529 2.15967L2.00002 6.85903L2 17.9999H18L18 6.85935Z" fill="#D9D9DD"/>
<path fill-rule="evenodd" clip-rule="evenodd" d="M6.02834 13.8064C6.02834 12.5324 7.06107 11.4997 8.33501 11.4997H11.6532C12.9271 11.4997 13.9599 12.5324 13.9599 13.8064V19.8832H6.02834V13.8064ZM8.33501 13.4997C8.16564 13.4997 8.02834 13.637 8.02834 13.8064V17.8832H11.9599V13.8064C11.9599 13.637 11.8226 13.4997 11.6532 13.4997H8.33501Z" fill="#D9D9DD"/>
</svg>
