<svg width="18" height="22" viewBox="0 0 18 22" fill="none" xmlns="http://www.w3.org/2000/svg">
<path fill-rule="evenodd" clip-rule="evenodd" d="M18 20C18 21.1046 17.1046 22 16 22H2C0.895432 22 1.83719e-06 21.1046 1.73097e-06 20L0 2C-1.06221e-07 0.895432 0.895429 9.15458e-07 2 8.27672e-07L12.4142 0L18 5.58579L18 20ZM2 20H16L16 7L13 7C11.8954 7 11 6.10457 11 5V2L2 2L2 20ZM13 3.41421L14.5858 5H13V3.41421Z" fill="#D9D9DD"/>
<path fill-rule="evenodd" clip-rule="evenodd" d="M4 15C4 14.4477 4.44772 14 5 14H11C11.5523 14 12 14.4477 12 15C12 15.5523 11.5523 16 11 16H5C4.44772 16 4 15.5523 4 15Z" fill="#D9D9DD"/>
<path fill-rule="evenodd" clip-rule="evenodd" d="M4 11C4 10.4477 4.44772 10 5 10H11C11.5523 10 12 10.4477 12 11C12 11.5523 11.5523 12 11 12H5C4.44772 12 4 11.5523 4 11Z" fill="#D9D9DD"/>
</svg>
