<svg width="22" height="18" viewBox="0 0 22 18" fill="none" xmlns="http://www.w3.org/2000/svg">
<path fill-rule="evenodd" clip-rule="evenodd" d="M0 2C0 0.89543 0.895431 0 2 0H20C21.1046 0 22 0.89543 22 2L22 16C22 17.1046 21.1046 18 20 18H2C0.895428 18 0 17.1046 0 16V2ZM20 2L2 2V16H20L20 2Z" fill="#6E6E82"/>
<path fill-rule="evenodd" clip-rule="evenodd" d="M0.100267 6.9534C0.100267 6.40111 0.547983 5.9534 1.10027 5.9534L20.9 5.9534C21.4523 5.9534 21.9 6.40111 21.9 6.9534C21.9 7.50568 21.4523 7.9534 20.9 7.9534L1.10027 7.9534C0.547983 7.9534 0.100267 7.50568 0.100267 6.9534Z" fill="#6E6E82"/>
</svg>
