<svg width="40" height="40" viewBox="0 0 40 40" fill="none" xmlns="http://www.w3.org/2000/svg">
<path fill-rule="evenodd" clip-rule="evenodd" d="M20.0002 17C21.657 17 23.0002 15.6569 23.0002 14C23.0002 12.3431 21.657 11 20.0002 11C18.3433 11 17.0002 12.3431 17.0002 14C17.0002 15.6569 18.3433 17 20.0002 17ZM20.0002 19C22.7616 19 25.0002 16.7614 25.0002 14C25.0002 11.2386 22.7616 9 20.0002 9C17.2387 9 15.0002 11.2386 15.0002 14C15.0002 16.7614 17.2387 19 20.0002 19Z" fill="#D9D9DD"/>
<path fill-rule="evenodd" clip-rule="evenodd" d="M26.7107 28C25.8506 25.1091 23.1706 23 20.0002 23C16.8297 23 14.1497 25.1091 13.2896 28H26.7107ZM28.0024 30C28.5547 30 29.006 29.5506 28.9454 29.0016C28.4487 24.5009 24.6333 21 20.0002 21C15.367 21 11.5516 24.5009 11.0549 29.0016C10.9943 29.5506 11.4456 30 11.9979 30H28.0024Z" fill="#D9D9DD"/>
</svg>
