<svg width="24" height="20" viewBox="0 0 24 20" fill="none" xmlns="http://www.w3.org/2000/svg">
<path d="M13.0254 0.386823C13.6406 0.0553242 14.3842 0.0689434 14.9868 0.422748L23.0128 5.13493C23.6245 5.49406 24.0002 6.15032 24.0002 6.85965L24.0002 18.0002C24.0002 19.1047 23.1048 20.0002 22.0002 20.0002H13.0002C12.4479 20.0002 12.0002 19.5525 12.0002 19.0002C12.0002 18.4479 12.4479 18.0002 13.0002 18.0002H22.0002L22.0002 6.85964L13.9742 2.14746L7.97458 5.38051C7.48839 5.6425 6.88187 5.46075 6.61987 4.97457C6.35788 4.48838 6.53962 3.88186 7.02581 3.61987L13.0254 0.386823Z" fill="white"/>
<path d="M11.0005 9.00018C11.0005 8.4479 11.4482 8.00018 12.0005 8.00018C12.5528 8.00018 13.0005 8.4479 13.0005 9.00018V10.0002C13.0005 10.5525 12.5528 11.0002 12.0005 11.0002C11.4482 11.0002 11.0005 10.5525 11.0005 10.0002V9.00018Z" fill="white"/>
<path d="M16.0005 8.00018C15.4482 8.00018 15.0005 8.4479 15.0005 9.00018V10.0002C15.0005 10.5525 15.4482 11.0002 16.0005 11.0002C16.5528 11.0002 17.0005 10.5525 17.0005 10.0002V9.00018C17.0005 8.4479 16.5528 8.00018 16.0005 8.00018Z" fill="white"/>
<path d="M11.0005 13.0002C11.0005 12.4479 11.4482 12.0002 12.0005 12.0002C12.5528 12.0002 13.0005 12.4479 13.0005 13.0002V14.0002C13.0005 14.5525 12.5528 15.0002 12.0005 15.0002C11.4482 15.0002 11.0005 14.5525 11.0005 14.0002V13.0002Z" fill="white"/>
<path d="M16.0005 12.0002C15.4482 12.0002 15.0005 12.4479 15.0005 13.0002V14.0002C15.0005 14.5525 15.4482 15.0002 16.0005 15.0002C16.5528 15.0002 17.0005 14.5525 17.0005 14.0002V13.0002C17.0005 12.4479 16.5528 12.0002 16.0005 12.0002Z" fill="white"/>
<path fill-rule="evenodd" clip-rule="evenodd" d="M5.10742 13.5002C6.90235 13.5002 8.35742 12.0451 8.35742 10.2502C8.35742 8.45526 6.90235 7.00018 5.10742 7.00018C3.3125 7.00018 1.85742 8.45526 1.85742 10.2502C1.85742 12.0451 3.3125 13.5002 5.10742 13.5002ZM5.10742 11.5002C5.79778 11.5002 6.35742 10.9405 6.35742 10.2502C6.35742 9.55983 5.79778 9.00018 5.10742 9.00018C4.41707 9.00018 3.85742 9.55983 3.85742 10.2502C3.85742 10.9405 4.41707 11.5002 5.10742 11.5002Z" fill="white"/>
<path fill-rule="evenodd" clip-rule="evenodd" d="M10.1333 19.0042C10.2234 19.5491 9.76737 20.0002 9.21508 20.0002H0.999935C0.44765 20.0002 -0.00840189 19.5491 0.0817357 19.0042C0.512139 16.4024 2.59854 14.4288 5.10751 14.4288C7.61647 14.4288 9.70288 16.4024 10.1333 19.0042ZM5.10751 16.4288C6.10918 16.4288 7.0982 17.0102 7.68346 18.0002H2.53156C3.11682 17.0102 4.10583 16.4288 5.10751 16.4288Z" fill="white"/>
</svg>
