<svg width="22" height="20" viewBox="0 0 22 20" fill="none" xmlns="http://www.w3.org/2000/svg">
<path fill-rule="evenodd" clip-rule="evenodd" d="M1.62974 2.44156C4.07969 -0.477811 8.40566 -0.830692 11.2848 1.66152C13.1853 3.30668 13.9732 5.77491 13.5867 8.09349L15.208 8.36835C15.5728 8.43021 15.8737 8.68853 15.9901 9.03983L16.525 10.6546L18.1716 10.9338C18.5365 10.9956 18.8373 11.2539 18.9537 11.6052L19.4886 13.22L21.1352 13.4992C21.6131 13.5802 21.9641 13.9923 21.9681 14.477L22 18.402C22.004 18.8984 21.6432 19.3226 21.1526 19.3984L17.3317 19.9883C17.0416 20.0331 16.7465 19.9482 16.5246 19.7561L9.22034 13.4334C6.97164 14.2761 4.35074 13.8941 2.3978 12.2036C-0.472173 9.71928 -0.812608 5.35185 1.62974 2.44156ZM9.97579 3.17368C7.94447 1.41532 4.89699 1.6595 3.16174 3.72723C1.41888 5.80403 1.66633 8.92519 3.70676 10.6914C5.21575 11.9977 7.28287 12.1981 8.95756 11.3704C9.31834 11.192 9.75085 11.2474 10.0551 11.5108L17.4838 17.9412L19.993 17.5537L19.9749 15.331L18.5613 15.0913C18.1964 15.0295 17.8956 14.7711 17.7792 14.4198L17.2443 12.8051L15.5977 12.5259C15.2328 12.464 14.9319 12.2057 14.8156 11.8544L14.2807 10.2397L12.634 9.96051C12.2692 9.89865 11.9683 9.64033 11.8519 9.28903L11.5978 8.52206C11.5417 8.3526 11.532 8.17121 11.5696 7.99671C11.9433 6.26477 11.3858 4.39421 9.97579 3.17368Z" fill="#D9D9DD"/>
<path d="M6.84997 5.44791C7.59555 5.44791 8.19995 6.06176 8.19995 6.81898C8.19995 7.57619 7.59555 8.19004 6.84997 8.19004C6.1044 8.19004 5.49999 7.57619 5.49999 6.81898C5.49999 6.06176 6.1044 5.44791 6.84997 5.44791Z" fill="#D9D9DD"/>
</svg>
