<svg width="18" height="18" viewBox="0 0 18 18" fill="none" xmlns="http://www.w3.org/2000/svg">
<path fill-rule="evenodd" clip-rule="evenodd" d="M0.000198245 1.99996C0.000219286 0.895407 0.895644 0 2.0002 0H6.0002C7.10478 0 8.00022 0.895454 8.0002 2.00004L8.00012 5.99982C8.0001 7.10438 7.10468 7.99979 6.00012 7.99979H2.00012C0.895538 7.99979 0.000100971 7.10433 0.000122071 5.99975L0.000198245 1.99996ZM6.0002 2H2.0002L2.00012 5.99979H6.00012L6.0002 2Z" fill="#6E6E82"/>
<path fill-rule="evenodd" clip-rule="evenodd" d="M10.0002 1.99996C10.0002 0.895407 10.8956 0 12.0002 0H16.0002C17.1048 0 18.0002 0.895454 18.0002 2.00004L18.0001 5.99982C18.0001 7.10438 17.1047 7.99979 16.0001 7.99979H12.0001C10.8955 7.99979 10.0001 7.10433 10.0001 5.99975L10.0002 1.99996ZM16.0002 2H12.0002L12.0001 5.99979H16.0001L16.0002 2Z" fill="#6E6E82"/>
<path fill-rule="evenodd" clip-rule="evenodd" d="M0.000198245 12C0.000219286 10.8954 0.895644 10 2.0002 10H6.0002C7.10478 10 8.00022 10.8955 8.0002 12.0001L8.00012 15.9999C8.0001 17.1044 7.10468 17.9998 6.00012 17.9998H2.00012C0.895538 17.9998 0.000100971 17.1044 0.000122071 15.9998L0.000198245 12ZM6.0002 12H2.0002L2.00012 15.9998H6.00012L6.0002 12Z" fill="#6E6E82"/>
<path fill-rule="evenodd" clip-rule="evenodd" d="M10.0002 12C10.0002 10.8954 10.8956 10 12.0002 10H16.0002C17.1048 10 18.0002 10.8955 18.0002 12.0001L18.0001 15.9999C18.0001 17.1044 17.1047 17.9998 16.0001 17.9998H12.0001C10.8955 17.9998 10.0001 17.1044 10.0001 15.9998L10.0002 12ZM16.0002 12H12.0002L12.0001 15.9998H16.0001L16.0002 12Z" fill="#6E6E82"/>
</svg>
