<svg width="16" height="16" viewBox="0 0 16 16" fill="none" xmlns="http://www.w3.org/2000/svg">
<path d="M8.03749 11.9991C8.28251 11.9908 8.51601 11.89 8.69362 11.716L13.6926 6.77404C13.884 6.58461 13.9945 6.32462 13.9998 6.05128C14.0051 5.77795 13.9047 5.51366 13.7207 5.31654C13.5368 5.11943 13.2843 5.00564 13.0189 5.00021C12.7534 4.99478 12.4968 5.09815 12.3054 5.28759L8 9.54101L3.69462 5.28758C3.50321 5.09815 3.24656 4.99477 2.98112 5.0002C2.71569 5.00563 2.46323 5.11942 2.27927 5.31654C2.09531 5.51366 1.99493 5.77795 2.0002 6.05128C2.00547 6.32462 2.11597 6.5846 2.30738 6.77404L7.30638 11.716C7.40356 11.8113 7.51837 11.8855 7.64397 11.9341C7.76958 11.9827 7.90341 12.0049 8.03749 11.9991Z" fill="#6E6E82"/>
</svg>
