<svg width="19" height="22" viewBox="0 0 19 22" fill="none" xmlns="http://www.w3.org/2000/svg">
<path fill-rule="evenodd" clip-rule="evenodd" d="M17.4167 16.5L16.9278 15.5433C16.7851 15.264 16.6528 14.9796 16.5311 14.6908C15.8611 13.1004 15.5128 11.3767 15.5128 9.62994V6.68017C15.5128 2.99081 12.6716 0 9.16668 0C5.66179 0 2.82052 2.99082 2.82052 6.68018V9.62994C2.82052 11.3767 2.47229 13.1004 1.80222 14.6908C1.68055 14.9796 1.54827 15.264 1.40553 15.5433L0.916668 16.5H17.4167ZM14.6738 14.6908C14.0939 13.0786 13.7941 11.3642 13.7941 9.62994V6.68017C13.7941 3.99002 11.7223 1.80921 9.16668 1.80921C6.61103 1.80921 4.53927 3.99002 4.53927 6.68018V9.62994C4.53927 11.3642 4.23947 13.0786 3.65956 14.6908H14.6738Z" fill="#6E6E82"/>
<path fill-rule="evenodd" clip-rule="evenodd" d="M6.60198 18.1739C7.07851 18.1739 7.46482 18.5249 7.46482 18.9579C7.46482 19.1515 7.50678 19.3432 7.5883 19.522C7.66982 19.7008 7.7893 19.8633 7.93993 20.0002C8.09056 20.1371 8.26939 20.2457 8.4662 20.3197C8.663 20.3938 8.87394 20.4319 9.08696 20.4319C9.29999 20.4319 9.51093 20.3938 9.70773 20.3197C9.90454 20.2457 10.0834 20.1371 10.234 20.0002C10.3846 19.8633 10.5041 19.7008 10.5856 19.522C10.6672 19.3432 10.7091 19.1515 10.7091 18.9579C10.7091 18.5249 11.0954 18.1739 11.572 18.1739C12.0485 18.1739 12.4348 18.5249 12.4348 18.9579C12.4348 19.3574 12.3482 19.753 12.18 20.1221C12.0117 20.4912 11.7651 20.8265 11.4542 21.109C11.1434 21.3915 10.7743 21.6156 10.3681 21.7684C9.96195 21.9213 9.52661 22 9.08696 22C8.64732 22 8.21198 21.9213 7.80581 21.7684C7.39963 21.6156 7.03057 21.3915 6.71969 21.109C6.40882 20.8265 6.16222 20.4912 5.99397 20.1221C5.82573 19.753 5.73913 19.3574 5.73913 18.9579C5.73913 18.5249 6.12544 18.1739 6.60198 18.1739Z" fill="#6E6E82"/>
<path fill-rule="evenodd" clip-rule="evenodd" d="M0 15.6232C0 15.0949 0.383809 14.6667 0.857261 14.6667H17.3167C17.7901 14.6667 18.1739 15.0949 18.1739 15.6232C18.1739 16.1515 17.7901 16.5797 17.3167 16.5797H0.857261C0.383809 16.5797 0 16.1515 0 15.6232Z" fill="#6E6E82"/>
</svg>
