<svg width="18" height="21" viewBox="0 0 18 21" fill="none" xmlns="http://www.w3.org/2000/svg">
<circle cx="8.75002" cy="5.25" r="4.25" stroke="#6E6E82" stroke-width="2"/>
<path d="M8.75 13.25C12.6911 13.25 15.9463 16.1926 16.4362 20H16.4322H16.4233H16.4144H16.4055H16.3965H16.3875H16.3785H16.3695H16.3604H16.3513H16.3421H16.3329H16.3237H16.3145H16.3052H16.2959H16.2865H16.2771H16.2677H16.2583H16.2488H16.2393H16.2298H16.2202H16.2106H16.2009H16.1913H16.1816H16.1718H16.1621H16.1523H16.1425H16.1326H16.1227H16.1128H16.1028H16.0928H16.0828H16.0728H16.0627H16.0526H16.0425H16.0323H16.0221H16.0118H16.0016H15.9913H15.981H15.9706H15.9602H15.9498H15.9393H15.9289H15.9183H15.9078H15.8972H15.8866H15.876H15.8653H15.8546H15.8439H15.8332H15.8224H15.8116H15.8007H15.7898H15.7789H15.768H15.757H15.746H15.735H15.7239H15.7129H15.7017H15.6906H15.6794H15.6682H15.657H15.6457H15.6344H15.6231H15.6118H15.6004H15.589H15.5775H15.566H15.5546H15.543H15.5315H15.5199H15.5083H15.4966H15.485H15.4732H15.4615H15.4498H15.438H15.4262H15.4143H15.4024H15.3905H15.3786H15.3666H15.3547H15.3426H15.3306H15.3185H15.3064H15.2943H15.2821H15.27H15.2577H15.2455H15.2332H15.2209H15.2086H15.1963H15.1839H15.1715H15.159H15.1466H15.1341H15.1216H15.109H15.0964H15.0838H15.0712H15.0586H15.0459H15.0332H15.0204H15.0077H14.9949H14.9821H14.9692H14.9563H14.9434H14.9305H14.9176H14.9046H14.8916H14.8785H14.8655H14.8524H14.8393H14.8261H14.813H14.7998H14.7866H14.7733H14.7601H14.7468H14.7334H14.7201H14.7067H14.6933H14.6799H14.6664H14.6529H14.6394H14.6259H14.6124H14.5988H14.5852H14.5715H14.5579H14.5442H14.5305H14.5167H14.503H14.4892H14.4754H14.4615H14.4477H14.4338H14.4199H14.4059H14.392H14.378H14.364H14.3499H14.3359H14.3218H14.3077H14.2935H14.2794H14.2652H14.251H14.2367H14.2225H14.2082H14.1939H14.1796H14.1652H14.1508H14.1364H14.122H14.1075H14.0931H14.0786H14.064H14.0495H14.0349H14.0203H14.0057H13.991H13.9764H13.9617H13.947H13.9322H13.9175H13.9027H13.8879H13.873H13.8582H13.8433H13.8284H13.8134H13.7985H13.7835H13.7685H13.7535H13.7385H13.7234H13.7083H13.6932H13.6781H13.6629H13.6477H13.6325H13.6173H13.6021H13.5868H13.5715H13.5562H13.5408H13.5255H13.5101H13.4947H13.4793H13.4638H13.4483H13.4328H13.4173H13.4018H13.3862H13.3707H13.3551H13.3394H13.3238H13.3081H13.2924H13.2767H13.261H13.2452H13.2294H13.2136H13.1978H13.182H13.1661H13.1502H13.1343H13.1184H13.1025H13.0865H13.0705H13.0545H13.0385H13.0224H13.0063H12.9903H12.9741H12.958H12.9418H12.9257H12.9095H12.8933H12.877H12.8608H12.8445H12.8282H12.8119H12.7955H12.7792H12.7628H12.7464H12.73H12.7135H12.6971H12.6806H12.6641H12.6476H12.631H12.6145H12.5979H12.5813H12.5647H12.548H12.5314H12.5147H12.498H12.4813H12.4645H12.4478H12.431H12.4142H12.3974H12.3806H12.3637H12.3468H12.33H12.3131H12.2961H12.2792H12.2622H12.2452H12.2282H12.2112H12.1942H12.1771H12.16H12.1429H12.1258H12.1087H12.0915H12.0744H12.0572H12.04H12.0228H12.0055H11.9883H11.971H11.9537H11.9364H11.919H11.9017H11.8843H11.8669H11.8495H11.8321H11.8147H11.7972H11.7797H11.7623H11.7447H11.7272H11.7097H11.6921H11.6745H11.6569H11.6393H11.6217H11.6041H11.5864H11.5687H11.551H11.5333H11.5156H11.4978H11.4801H11.4623H11.4445H11.4267H11.4088H11.391H11.3731H11.3552H11.3373H11.3194H11.3015H11.2835H11.2656H11.2476H11.2296H11.2116H11.1936H11.1755H11.1575H11.1394H11.1213H11.1032H11.0851H11.0669H11.0488H11.0306H11.0124H10.9942H10.976H10.9578H10.9395H10.9213H10.903H10.8847H10.8664H10.8481H10.8297H10.8114H10.793H10.7746H10.7562H10.7378H10.7194H10.7009H10.6825H10.664H10.6455H10.627H10.6085H10.59H10.5714H10.5528H10.5343H10.5157H10.4971H10.4785H10.4598H10.4412H10.4225H10.4038H10.3852H10.3665H10.3477H10.329H10.3103H10.2915H10.2727H10.2539H10.2351H10.2163H10.1975H10.1787H10.1598H10.1409H10.1221H10.1032H10.0843H10.0653H10.0464H10.0275H10.0085H9.98952H9.97053H9.95153H9.93252H9.91349H9.89445H9.8754H9.85634H9.83726H9.81817H9.79907H9.77995H9.76083H9.74169H9.72253H9.70337H9.68419H9.665H9.6458H9.62659H9.60736H9.58812H9.56887H9.54961H9.53033H9.51104H9.49175H9.47243H9.45311H9.43378H9.41443H9.39507H9.37571H9.35632H9.33693H9.31753H9.29811H9.27868H9.25925H9.2398H9.22034H9.20086H9.18138H9.16189H9.14238H9.12286H9.10333H9.0838H9.06425H9.04469H9.02511H9.00553H8.98594H8.96634H8.94672H8.9271H8.90746H8.88781H8.86816H8.84849H8.82881H8.80912H8.78943H8.76972H8.75H8.73028H8.71057H8.69088H8.67119H8.65151H8.63184H8.61219H8.59254H8.5729H8.55328H8.53366H8.51406H8.49447H8.47489H8.45531H8.43575H8.4162H8.39667H8.37714H8.35762H8.33811H8.31862H8.29914H8.27966H8.2602H8.24075H8.22132H8.20189H8.18247H8.16307H8.14368H8.1243H8.10493H8.08557H8.06622H8.04689H8.02757H8.00825H7.98896H7.96967H7.95039H7.93113H7.91188H7.89264H7.87341H7.8542H7.835H7.81581H7.79663H7.77747H7.75831H7.73917H7.72005H7.70093H7.68183H7.66274H7.64366H7.6246H7.60555H7.58651H7.56748H7.54847H7.52947H7.51048H7.49151H7.47255H7.4536H7.43467H7.41574H7.39684H7.37794H7.35906H7.34019H7.32134H7.3025H7.28367H7.26486H7.24606H7.22727H7.2085H7.18974H7.171H7.15226H7.13355H7.11484H7.09616H7.07748H7.05882H7.04017H7.02154H7.00292H6.98432H6.96573H6.94715H6.92859H6.91005H6.89151H6.873H6.8545H6.83601H6.81753H6.79908H6.78063H6.7622H6.74379H6.72539H6.70701H6.68864H6.67028H6.65194H6.63362H6.61531H6.59702H6.57874H6.56048H6.54223H6.524H6.50578H6.48758H6.46939H6.45122H6.43307H6.41493H6.39681H6.3787H6.36061H6.34254H6.32448H6.30643H6.28841H6.27039H6.2524H6.23442H6.21646H6.19851H6.18058H6.16267H6.14477H6.12689H6.10902H6.09118H6.07334H6.05553H6.03773H6.01995H6.00218H5.98444H5.9667H5.94899H5.93129H5.91361H5.89595H5.8783H5.86067H5.84306H5.82546H5.80789H5.79033H5.77278H5.75526H5.73775H5.72026H5.70278H5.68533H5.66789H5.65047H5.63307H5.61568H5.59831H5.58097H5.56363H5.54632H5.52902H5.51175H5.49449H5.47724H5.46002H5.44282H5.42563H5.40846H5.39131H5.37418H5.35706H5.33997H5.32289H5.30583H5.28879H5.27177H5.25477H5.23779H5.22082H5.20388H5.18695H5.17004H5.15315H5.13628H5.11943H5.1026H5.08579H5.06899H5.05222H5.03546H5.01873H5.00201H4.98531H4.96864H4.95198H4.93534H4.91872H4.90212H4.88554H4.86898H4.85244H4.83592H4.81942H4.80294H4.78648H4.77004H4.75362H4.73722H4.72084H4.70448H4.68814H4.67182H4.65552H4.63924H4.62298H4.60675H4.59053H4.57433H4.55815H4.542H4.52586H4.50975H4.49366H4.47758H4.46153H4.4455H4.42949H4.4135H4.39753H4.38159H4.36566H4.34976H4.33387H4.31801H4.30217H4.28635H4.27056H4.25478H4.23902H4.22329H4.20758H4.19189H4.17622H4.16057H4.14495H4.12935H4.11376H4.09821H4.08267H4.06715H4.05166H4.03619H4.02074H4.00531H3.98991H3.97453H3.95917H3.94383H3.92851H3.91322H3.89795H3.8827H3.86748H3.85227H3.83709H3.82194H3.8068H3.79169H3.7766H3.76154H3.74649H3.73147H3.71648H3.7015H3.68655H3.67163H3.65672H3.64184H3.62698H3.61215H3.59734H3.58255H3.56779H3.55305H3.53833H3.52364H3.50897H3.49432H3.4797H3.4651H3.45053H3.43598H3.42145H3.40695H3.39247H3.37802H3.36359H3.34918H3.3348H3.32044H3.30611H3.2918H3.27751H3.26325H3.24902H3.23481H3.22062H3.20646H3.19232H3.17821H3.16412H3.15006H3.13602H3.12201H3.10802H3.09406H3.08012H3.06621H3.05232H3.03846H3.02462H3.01081H2.99702H2.98326H2.96953H2.95582H2.94213H2.92847H2.91484H2.90123H2.88765H2.87409H2.86056H2.84705H2.83357H2.82012H2.80669H2.79329H2.77992H2.76657H2.75324H2.73995H2.72668H2.71343H2.70021H2.68702H2.67385H2.66072H2.6476H2.63452H2.62146H2.60842H2.59542H2.58244H2.56949H2.55656H2.54366H2.53079H2.51794H2.50513H2.49233H2.47957H2.46683H2.45412H2.44144H2.42879H2.41616H2.40356H2.39098H2.37844H2.36592H2.35343H2.34097H2.32853H2.31612H2.30374H2.29139H2.27907H2.26677H2.2545H2.24226H2.23005H2.21786H2.2057H2.19358H2.18148H2.1694H2.15736H2.14534H2.13336H2.1214H2.10947H2.09756H2.08569H2.07385H2.06203H2.05024H2.03848H2.02675H2.01505H2.00338H1.99174H1.98012H1.96854H1.95698H1.94545H1.93395H1.92248H1.91104H1.89963H1.88825H1.8769H1.86558H1.85428H1.84302H1.83178H1.82058H1.80941H1.79826H1.78714H1.77606H1.765H1.75398H1.74298H1.73201H1.72108H1.71017H1.69929H1.68845H1.67763H1.66685H1.65609H1.64536H1.63467H1.62401H1.61337H1.60277H1.59219H1.58165H1.57114H1.56066H1.55021H1.53979H1.5294H1.51904H1.50871H1.49842H1.48815H1.47792H1.46772H1.45754H1.4474H1.43729H1.42721H1.41717H1.40715H1.39717H1.38721H1.37729H1.3674H1.35754H1.34772H1.33792H1.32816H1.31843H1.30873H1.29906H1.28942H1.27982H1.27025H1.26071H1.2512H1.24172H1.23228H1.22287H1.21349H1.20414H1.19483H1.18554H1.1763H1.16708H1.15789H1.14874H1.13962H1.13053H1.12148H1.11246H1.10347H1.09451H1.08559H1.0767H1.06784H1.06381C1.55372 16.1926 4.80891 13.25 8.75 13.25Z" stroke="#6E6E82" stroke-width="2"/>
</svg>
